<?xml version="1.0" standalone="no"?>
<!DOCTYPE svg PUBLIC "-//W3C//DTD SVG 20010904//EN"
 "http://www.w3.org/TR/2001/REC-SVG-20010904/DTD/svg10.dtd">
<svg version="1.0" xmlns="http://www.w3.org/2000/svg"
 width="273.000000pt" height="251.000000pt" viewBox="0 0 273.000000 251.000000"
 preserveAspectRatio="xMidYMid meet">

<g transform="translate(0.000000,251.000000) scale(0.100000,-0.100000)"
fill="#000000" stroke="none">
<path d="M1355 2479 c-109 -8 -227 -39 -315 -82 -51 -25 -66 -37 -68 -57 -1
-14 27 -155 63 -314 36 -158 65 -303 65 -321 0 -53 -59 -82 -110 -55 -23 12
-29 32 -75 240 -20 91 -42 185 -49 210 l-12 45 -48 -60 c-64 -80 -141 -238
-160 -328 -8 -40 -17 -123 -19 -185 l-3 -113 -67 -67 c-66 -66 -80 -97 -59
-129 20 -31 69 -33 942 -33 873 0 922 2 942 33 21 33 7 64 -56 126 l-63 63 -7
117 c-12 200 -49 323 -140 460 -42 63 -96 123 -96 107 0 -13 -91 -410 -101
-444 -25 -78 -139 -65 -139 17 0 16 29 159 65 317 67 296 71 320 56 342 -10
16 -134 67 -215 88 -81 21 -219 31 -331 23z"/>
<path d="M945 1100 c-60 -13 -179 -57 -281 -106 -89 -43 -93 -44 -182 -42 -50
1 -95 -1 -99 -6 -7 -7 -12 -707 -5 -732 2 -8 58 -10 190 -6 228 6 319 -9 702
-114 71 -19 110 -24 157 -21 87 6 94 11 448 272 214 159 534 373 720 483 119
70 130 90 96 166 -16 37 -29 51 -63 66 -83 38 -53 49 -529 -199 -86 -44 -199
-98 -250 -118 l-94 -38 -250 2 c-137 1 -273 4 -301 8 -50 6 -52 5 -102 -40
-43 -39 -54 -44 -71 -36 -10 6 -21 16 -24 23 -7 23 12 71 40 101 57 60 63 61
334 53 275 -8 313 -3 352 44 52 61 44 150 -19 211 l-35 34 -347 2 c-191 0
-365 -3 -387 -7z"/>
<path d="M30 541 c0 -258 -2 -475 -5 -483 -3 -7 0 -21 7 -29 11 -13 32 -15
126 -11 l112 4 0 494 0 494 -120 0 -120 0 0 -469z"/>
<path d="M2458 627 c-32 -23 -134 -94 -228 -157 -201 -136 -445 -306 -486
-338 l-29 -23 33 16 c108 52 587 383 755 522 48 39 15 25 -45 -20z"/>
</g>
</svg>
